<svg width="362" height="305" viewBox="0 0 362 305" fill="none" xmlns="http://www.w3.org/2000/svg">
<path d="M285.578 294.385C302.203 289.749 340.465 269.874 361.494 227.331C361.828 226.655 362 225.904 362 225.15L362 50.0654V4.99997C362 2.23856 359.761 -3.05176e-05 357 -3.05176e-05L5.00003 -3.05176e-05C2.23862 -3.05176e-05 3.05176e-05 2.23853 3.05176e-05 4.99997L3.05176e-05 235.574C3.05176e-05 240.696 7.21124 242.773 10.2177 238.625C30.1299 211.156 64.4428 178.948 96.5334 196.257C144.8 222.291 146.811 270.353 173.961 294.385C195.681 313.61 257.422 302.395 285.578 294.385Z" fill="#23C4BA" fill-opacity="0.13"/>
</svg>
